<svg xmlns="http://www.w3.org/2000/svg" width="23.816" height="23.815" viewBox="0 0 23.816 23.815">
  <g id="noun_Log_Out_3556472" data-name="noun_Log Out_3556472" transform="translate(-7 -24)">
    <g id="Group_329" data-name="Group 329" transform="translate(7 24)">
      <path id="Path_77" data-name="Path 77" d="M21.721,41.815h3.721V38.838H21.721a.744.744,0,0,1-.744-.744V21.721a.744.744,0,0,1,.744-.744h3.721V18H21.721A3.721,3.721,0,0,0,18,21.721V38.094a3.721,3.721,0,0,0,3.721,3.721Z" transform="translate(-18 -18)" fill="#411c64"/>
      <path id="Path_78" data-name="Path 78" d="M45.908,32.34,43.8,34.446l2.977,2.977H34V40.4H46.778L43.8,43.377l2.106,2.106,5.518-5.518a1.488,1.488,0,0,0,0-2.106Z" transform="translate(-28.046 -27.004)" fill="#411c64"/>
    </g>
  </g>
</svg>
