<svg xmlns="http://www.w3.org/2000/svg" width="31" height="31" viewBox="0 0 31 31">
  <g id="Group_311" data-name="Group 311" transform="translate(-1565 -44.45)">
    <g id="Ellipse_18" data-name="Ellipse 18" transform="translate(1565 44.45)" fill="#fff" stroke="#411c64" stroke-width="2">
      <circle cx="15.5" cy="15.5" r="15.5" stroke="none"/>
      <circle cx="15.5" cy="15.5" r="14.5" fill="none"/>
    </g>
    <path id="Icon_ionic-ios-person" data-name="Icon ionic-ios-person" d="M19.346,18.979c-.279-1.23-1.868-1.83-2.418-2.023a18.026,18.026,0,0,0-2.015-.387,2.048,2.048,0,0,1-.932-.429,8.147,8.147,0,0,1-.062-1.907,5.737,5.737,0,0,0,.441-.839,10.827,10.827,0,0,0,.325-1.466s.317,0,.429-.557a5.48,5.48,0,0,0,.286-1.3c-.023-.445-.267-.433-.267-.433A6.782,6.782,0,0,0,15.4,7.656,3.187,3.187,0,0,0,11.931,4.5a3.173,3.173,0,0,0-3.47,3.156A7.074,7.074,0,0,0,8.72,9.641s-.244-.012-.267.433a5.48,5.48,0,0,0,.286,1.3c.108.557.429.557.429.557a10.827,10.827,0,0,0,.325,1.466,5.738,5.738,0,0,0,.441.839,8.147,8.147,0,0,1-.062,1.907,2.048,2.048,0,0,1-.932.429,18.025,18.025,0,0,0-2.015.387c-.549.193-2.139.793-2.418,2.023a.309.309,0,0,0,.306.375H19.045A.309.309,0,0,0,19.346,18.979Z" transform="translate(1568.752 47.844)" fill="#411c64"/>
  </g>
</svg>
